<mxfile host="app.diagrams.net" modified="2022-09-21T03:58:06.953Z" agent="5.0 (Macintosh; Intel Mac OS X 10_15_7) AppleWebKit/537.36 (KHTML, like Gecko) Chrome/105.0.0.0 Safari/537.36" etag="FrFYySadhG169PORADs-" version="20.3.0" type="github">
  <diagram id="3OZsG9hG9enI4AtyTJ8A" name="Page-1">
    <mxGraphModel dx="1324" dy="940" grid="1" gridSize="10" guides="1" tooltips="1" connect="1" arrows="1" fold="1" page="1" pageScale="1" pageWidth="827" pageHeight="1169" math="0" shadow="0">
      <root>
        <mxCell id="0" />
        <mxCell id="1" parent="0" />
        <mxCell id="Qx0t_TdNGkOakYE9ysFF-7" style="edgeStyle=orthogonalEdgeStyle;rounded=0;orthogonalLoop=1;jettySize=auto;html=1;" edge="1" parent="1" source="Qx0t_TdNGkOakYE9ysFF-1" target="Qx0t_TdNGkOakYE9ysFF-2">
          <mxGeometry relative="1" as="geometry" />
        </mxCell>
        <mxCell id="Qx0t_TdNGkOakYE9ysFF-11" style="edgeStyle=orthogonalEdgeStyle;rounded=0;orthogonalLoop=1;jettySize=auto;html=1;" edge="1" parent="1" source="Qx0t_TdNGkOakYE9ysFF-1" target="Qx0t_TdNGkOakYE9ysFF-3">
          <mxGeometry relative="1" as="geometry" />
        </mxCell>
        <mxCell id="Qx0t_TdNGkOakYE9ysFF-1" value="Christ" style="rounded=0;whiteSpace=wrap;html=1;" vertex="1" parent="1">
          <mxGeometry x="380" y="180" width="120" height="60" as="geometry" />
        </mxCell>
        <mxCell id="Qx0t_TdNGkOakYE9ysFF-8" style="edgeStyle=orthogonalEdgeStyle;rounded=0;orthogonalLoop=1;jettySize=auto;html=1;entryX=0.5;entryY=0;entryDx=0;entryDy=0;" edge="1" parent="1" source="Qx0t_TdNGkOakYE9ysFF-2" target="Qx0t_TdNGkOakYE9ysFF-4">
          <mxGeometry relative="1" as="geometry" />
        </mxCell>
        <mxCell id="Qx0t_TdNGkOakYE9ysFF-9" style="edgeStyle=orthogonalEdgeStyle;rounded=0;orthogonalLoop=1;jettySize=auto;html=1;" edge="1" parent="1" source="Qx0t_TdNGkOakYE9ysFF-2" target="Qx0t_TdNGkOakYE9ysFF-5">
          <mxGeometry relative="1" as="geometry" />
        </mxCell>
        <mxCell id="Qx0t_TdNGkOakYE9ysFF-2" value="Parents No" style="rounded=0;whiteSpace=wrap;html=1;" vertex="1" parent="1">
          <mxGeometry x="200" y="300" width="120" height="60" as="geometry" />
        </mxCell>
        <mxCell id="Qx0t_TdNGkOakYE9ysFF-13" style="edgeStyle=orthogonalEdgeStyle;rounded=0;orthogonalLoop=1;jettySize=auto;html=1;entryX=0.5;entryY=0;entryDx=0;entryDy=0;" edge="1" parent="1" source="Qx0t_TdNGkOakYE9ysFF-3" target="Qx0t_TdNGkOakYE9ysFF-12">
          <mxGeometry relative="1" as="geometry" />
        </mxCell>
        <mxCell id="Qx0t_TdNGkOakYE9ysFF-3" value="Parents Yes" style="rounded=0;whiteSpace=wrap;html=1;" vertex="1" parent="1">
          <mxGeometry x="560" y="300" width="120" height="60" as="geometry" />
        </mxCell>
        <mxCell id="Qx0t_TdNGkOakYE9ysFF-4" value="I will live Seperate" style="rounded=0;whiteSpace=wrap;html=1;" vertex="1" parent="1">
          <mxGeometry x="200" y="440" width="120" height="60" as="geometry" />
        </mxCell>
        <mxCell id="Qx0t_TdNGkOakYE9ysFF-10" style="edgeStyle=orthogonalEdgeStyle;rounded=0;orthogonalLoop=1;jettySize=auto;html=1;entryX=0.5;entryY=0;entryDx=0;entryDy=0;" edge="1" parent="1" source="Qx0t_TdNGkOakYE9ysFF-5" target="Qx0t_TdNGkOakYE9ysFF-6">
          <mxGeometry relative="1" as="geometry" />
        </mxCell>
        <mxCell id="Qx0t_TdNGkOakYE9ysFF-5" value="Relatives No" style="rounded=0;whiteSpace=wrap;html=1;" vertex="1" parent="1">
          <mxGeometry x="20" y="440" width="120" height="60" as="geometry" />
        </mxCell>
        <mxCell id="Qx0t_TdNGkOakYE9ysFF-6" value="I will live Seperate" style="rounded=0;whiteSpace=wrap;html=1;" vertex="1" parent="1">
          <mxGeometry x="20" y="570" width="120" height="60" as="geometry" />
        </mxCell>
        <mxCell id="Qx0t_TdNGkOakYE9ysFF-12" value="I can live together" style="rounded=0;whiteSpace=wrap;html=1;" vertex="1" parent="1">
          <mxGeometry x="560" y="440" width="120" height="60" as="geometry" />
        </mxCell>
      </root>
    </mxGraphModel>
  </diagram>
</mxfile>
